<svg xmlns="http://www.w3.org/2000/svg" viewBox="0 0 32 32" width="32" height="32">
  <defs>
    <linearGradient id="bloodGradient" x1="0%" y1="0%" x2="100%" y2="100%">
      <stop offset="0%" style="stop-color:#e53e3e;stop-opacity:1" />
      <stop offset="100%" style="stop-color:#c53030;stop-opacity:1" />
    </linearGradient>
    <linearGradient id="techGradient" x1="0%" y1="0%" x2="100%" y2="100%">
      <stop offset="0%" style="stop-color:#4299e1;stop-opacity:1" />
      <stop offset="100%" style="stop-color:#3182ce;stop-opacity:1" />
    </linearGradient>
  </defs>
  
  <!-- Background circle -->
  <circle cx="16" cy="16" r="15" fill="#ffffff" stroke="#e2e8f0" stroke-width="1"/>
  
  <!-- Main blood drop shape -->
  <path d="M16 8 C18.5 10.5 22 14 22 18 C22 21.866 19.314 25 16 25 C12.686 25 10 21.866 10 18 C10 14 13.5 10.5 16 8 Z" fill="url(#bloodGradient)"/>
  
  <!-- AI circuit pattern inside -->
  <circle cx="14" cy="16" r="1.5" fill="#ffffff" opacity="0.8"/>
  <circle cx="18" cy="18" r="1" fill="#ffffff" opacity="0.6"/>
  <line x1="14" y1="16" x2="18" y2="18" stroke="#ffffff" stroke-width="0.8" opacity="0.5"/>
  
  <!-- Chat bubble indicator -->
  <circle cx="22" cy="10" r="4" fill="url(#techGradient)"/>
  <circle cx="21" cy="9" r="0.8" fill="#ffffff"/>
  <circle cx="23" cy="9" r="0.8" fill="#ffffff"/>
  <circle cx="22" cy="11" r="0.8" fill="#ffffff"/>
</svg>